<?xml version="1.0" encoding="utf-8"?>
<!-- Generator: Adobe Illustrator 18.1.1, SVG Export Plug-In . SVG Version: 6.00 Build 0)  -->
<svg version="1.1" id="Ebene_1" xmlns="http://www.w3.org/2000/svg" xmlns:xlink="http://www.w3.org/1999/xlink" x="0px" y="0px"
	 width="18px" height="21px" viewBox="0 0 18 21" style="enable-background:new 0 0 18 21;" xml:space="preserve">
<g>
	<rect x="3.8" style="fill:#FFFFFF;" width="10.3" height="6.7"/>
	<g>
		<path style="fill:#FFFFFF;" d="M17,4.8h-1v3.7H2V4.8H1c-0.6,0-1,0.5-1,1V14c0,0.6,0.5,1,1,1h1v-3.7h14v3.7h1c0.6,0,1-0.5,1-1V5.9
			C18,5.3,17.5,4.8,17,4.8z"/>
	</g>
	<path style="fill:#FFFFFF;" d="M3.8,13.2v7.3h10.3v-7.3H3.8z M5.2,15h7.5v1.3H5.2V15z M12.8,18.8H5.2v-1.3h7.5V18.8z"/>
</g>
</svg>
