<?xml version="1.0" encoding="utf-8"?>
<!-- Generator: Adobe Illustrator 18.1.1, SVG Export Plug-In . SVG Version: 6.00 Build 0)  -->
<svg version="1.1" id="Ebene_1" xmlns="http://www.w3.org/2000/svg" xmlns:xlink="http://www.w3.org/1999/xlink" x="0px" y="0px"
	 width="18px" height="19px" viewBox="0 0 18 19" style="enable-background:new 0 0 18 19;" xml:space="preserve">
<path style="fill:#FFFFFF;" d="M0,4.2c0-0.6,0.2-1.1,0.5-1.4L3,0.3c0.5-0.4,1-0.4,1.4,0.2c0,0,2.1,3.8,2.1,3.8C6.8,5,6.3,5.5,5.9,6
	C5.8,6.1,5.7,6.2,5.6,6.2C5.4,6.4,5.2,6.5,5.1,6.8C5,7.1,5.2,7.5,5.3,7.8c0.2,0.4,0.4,0.7,0.7,1.1C6.2,9.3,6.5,9.6,6.8,10
	c0.6,0.7,1.3,1.3,2.1,1.9c0.5,0.3,1.7,1.4,2.3,1c0.3-0.2,0.5-0.4,0.7-0.6c0.2-0.2,0.4-0.4,0.6-0.6c0.5-0.4,0.9-0.4,1.3-0.2l3.7,2.2
	c0.3,0.2,0.4,0.4,0.5,0.7c0,0.3,0,0.5-0.2,0.7l-2.6,2.5c-0.3,0.3-0.8,0.5-1.3,0.5c-1.7,0-3.6-0.8-5.8-2.2c-3.1-2.2-5.4-4.7-6.8-7.4
	C0.4,6.6-0.1,5.2,0,4.2z"/>
</svg>
