<?xml version="1.0" encoding="utf-8"?>
<!-- Generator: Adobe Illustrator 18.1.1, SVG Export Plug-In . SVG Version: 6.00 Build 0)  -->
<svg version="1.1" id="Ebene_1" xmlns="http://www.w3.org/2000/svg" xmlns:xlink="http://www.w3.org/1999/xlink" x="0px" y="0px"
	 width="206px" height="70px" viewBox="79 7 206 70" style="enable-background:new 79 7 206 70;" xml:space="preserve">
<g>
	<path style="fill:#FFFFFF;" d="M79,42c0-19.3,15.7-35,35-35c19.3,0,35,15.7,35,35c0,19.3-15.7,35-35,35C94.7,77,79,61.3,79,42"/>
	<path style="fill:#DD2930;" d="M124,38.2l-3,0.7c0.3,0.8,1.4,0.4,1.4,0.4l3-0.6C125.1,38,124,38.2,124,38.2"/>
	<path style="fill:#DD2930;" d="M123.8,39.7c-0.7,0.1-2.7,0.7-2.7,0.8c0,0.1,1.4,0.6,1.6,0.6c0.3,0.1,1.1,0,1.1-0.4
		c0-0.4,0-0.3,0-0.3l1.1-0.1C124.9,40.3,124.5,39.6,123.8,39.7"/>
	<path style="fill:#E40421;" d="M128,35.6l-23.1,1.8c0.8-1.5,1.8-1.6,2.4-1.6l22.2-1.7C129.5,34.5,129,35.4,128,35.6 M126.5,44.6
		l-2.4-0.2c0,0,0.1,0.5,0.5,0.6c0.4,0.1,1,0.1,1,0.1s-0.2,0.4-0.1,1.2c0,0.8-0.6,0.6-0.6,0.6l-2.4-0.3c0,0,0.1,0.8,0.9,0.9
		c0.8,0.1,0.7,0.1,1.1,0.1c0.4,0,0.6,0.8-0.2,0.9c-0.8,0.1-0.8,0.6-0.8,1.9c0,1.2-2,1.7-3.7,1c-1.7-0.7-5-2.2-5-2.2
		s-0.2,0.7,0.5,1.2c0.7,0.4,2.7,1.2,2.7,1.2s-1.9,2.6-2.5,3.4c-0.6,0.9-0.3,2,0.3,2.8c0.5,0.7,1.6,4.7,1.6,4.9l-1.9,0.2
		c-2.3-5.4-8.4-9.5-15.4-7.8l-0.7-1.7c1.4-0.7,2.6-1.3,3.7-2c2.5-1.4,3.5-1.8,6.2-4.9c0.8-0.8,2.2-2.6,2.7-3.3c0,0,0.7,1.1,2.4,0.2
		l-0.1-0.8l-0.5,0.3c0,0-1,0.5-1.1-0.3c-0.2-0.7-0.4-2.1-0.6-2.8c-0.2-0.8,1.4-1.6,1.7-0.4s0.3,1.1,0.3,1.1l0.6-0.7
		c0,0-0.2-0.7-0.3-0.9c-0.6-1.5-3.5-0.1-3.2,1.1c0.3,1.4,0.5,2.4,0.5,2.4l-1.6,1.9c0,0-1-3.4-1.3-4.1c-0.3-0.7-0.1-2.2-0.1-2.2l0,0
		l17.1-1.3c0.1,2.1,1.4,5.2,1.8,6.8C128.2,44.9,126.5,44.6,126.5,44.6 M113.6,32.6l-0.8,2l-4.4,0.3c0,0,0.3-1.5,1.2-3
		c1.1-0.1,2.9-0.2,3.4-0.2C113.7,31.7,113.8,32.2,113.6,32.6 M113.1,24c4.1,0,5.4,2.2,5.6,4.2c0.1,0.7,0,1.3-0.2,1.8
		c0,0-1.2,3.1-1.7,4.2l-3.1,0.2l0.8-1.7c0.6-1.3-0.8-2-1.7-1.9l-2.6,0.2l-1.9,0.1c-0.6,0-1.5,0-2.1-0.7l-0.7-0.9l7-0.4l2.7-0.2
		c-0.1-0.4-0.4-0.5-0.7-0.6c-0.4-0.1-0.9-0.1-0.9-0.1l-6.3,0.4c-1.5,0-2,0-2.7-0.7l-0.7-0.8l10.4-0.7c-0.4-0.8-1.5-0.7-1.5-0.7
		l-7.5,0.4c0,0-1.9,0.2-2.9-1.6C102.4,24.6,111.4,24,113.1,24 M119.6,28.4c5.1,1.1,6.4,5.2,6.4,5.2l-8.2,0.6
		c0.4-1.2,1.6-4.2,1.6-4.2C119.5,29.5,119.6,29,119.6,28.4 M114,19.6c-12.4,0-22.4,10-22.4,22.4c0,12.4,10,22.4,22.4,22.4
		c12.4,0,22.4-10,22.4-22.4C136.4,29.6,126.4,19.6,114,19.6"/>
	<path d="M114,65.6C101,65.6,90.4,55,90.4,42c0-13,10.6-23.6,23.6-23.6S137.6,29,137.6,42C137.6,55,127,65.6,114,65.6 M85.3,46
		c-2.2,0-4-1.8-4-4c0-2.2,1.8-4,4-4c2.2,0,4,1.8,4,4C89.3,44.1,87.5,46,85.3,46 M114,8.3C95.4,8.3,80.3,23.4,80.3,42
		c0,18.6,15.1,33.7,33.7,33.7c18.6,0,33.7-15.1,33.7-33.7C147.7,23.4,132.6,8.3,114,8.3"/>
	<path style="fill:#E40421;" d="M86.1,42.7v1.8h-1.5v-1.8h-1.8v-1.5h1.8v-1.8h1.5v1.8h1.8v1.5H86.1z M85.3,38.4
		c-1.9,0-3.5,1.6-3.5,3.5c0,1.9,1.6,3.5,3.5,3.5c1.9,0,3.5-1.6,3.5-3.5C88.8,40,87.2,38.4,85.3,38.4"/>
</g>
<polygon style="fill:#FFFFFF;" points="90.8,30.4 88.7,29.5 87.9,31.1 90,32.1 89.5,33.2 84.6,31 85.1,29.8 87,30.7 87.7,29 
	85.8,28.2 86.3,27.1 91.3,29.3 "/>
<g>
	<path style="fill:#FFFFFF;" d="M92.7,27.4c-0.4,0.5-0.8,1-1.1,1.3l-0.7-0.5c0.3-0.3,0.6-0.7,0.9-1.2c0.3-0.5,0.3-0.7,0-1
		c-0.3-0.2-0.4-0.1-0.9,0.1l-0.7,0.4c-0.7,0.4-1.2,0.5-2,0c-0.9-0.6-0.9-1.4-0.2-2.4c0.4-0.5,0.8-0.9,1-1.1l0.7,0.5
		c-0.3,0.3-0.6,0.7-0.9,1.1c-0.3,0.4-0.3,0.7,0,0.9c0.2,0.2,0.4,0.1,0.8-0.1l0.6-0.4c0.8-0.5,1.3-0.5,2,0
		C93.3,25.6,93.3,26.5,92.7,27.4"/>
	<path style="fill:#FFFFFF;" d="M93.8,21.3c-0.8-0.8-1.3-0.8-1.7-0.4c-0.4,0.4-0.4,0.9,0.4,1.7l0.4,0.4c0.8,0.8,1.3,0.8,1.7,0.4
		c0.4-0.4,0.4-0.9-0.4-1.7L93.8,21.3z M95.4,24.1c-0.9,0.9-2,1.1-3.3-0.2l-0.4-0.4c-1.4-1.3-1.2-2.4-0.4-3.3c0.9-0.9,2-1.1,3.3,0.2
		l0.4,0.4C96.4,22.1,96.3,23.2,95.4,24.1"/>
	<path style="fill:#FFFFFF;" d="M104.7,17.6l-1.3,0.6l-1.6-2.1c-0.2-0.2-0.3-0.4-0.4-0.6l0,0c0.1,0.2,0.1,0.5,0.2,0.7l0.6,2.6
		l-1.3,0.6L97.7,15l1.1-0.5l1.6,2.5c0.2,0.3,0.4,0.6,0.6,0.9l0,0c-0.1-0.3-0.2-0.6-0.2-0.9l-0.8-3l0.9-0.4l1.9,2.5
		c0.2,0.2,0.4,0.5,0.6,0.8l0,0c-0.1-0.3-0.2-0.6-0.3-1l-0.9-2.8l1.1-0.5L104.7,17.6z"/>
</g>
<rect x="103.1" y="13.9" transform="matrix(0.285 0.9585 -0.9585 0.285 89.593 -91.0617)" style="fill:#FFFFFF;" width="5.4" height="1.2"/>
<g>
	<path style="fill:#FFFFFF;" d="M110,12.6c-0.1-0.6-0.4-0.7-1.1-0.6c-0.2,0-0.3,0-0.4,0.1l0.3,1.6l0.4-0.1
		C109.8,13.5,110.1,13.2,110,12.6L110,12.6z M110.8,16.2l-1.3-1.7l-0.7,0.1l0.3,1.9l-1.2,0.2l-0.9-5.3c0.5-0.1,0.9-0.2,1.5-0.3
		c1.2-0.2,2.3-0.1,2.5,1.4l0,0.1c0.1,0.8-0.1,1.3-0.5,1.6l1.4,2L110.8,16.2z"/>
</g>
<polygon style="fill:#FFFFFF;" points="114.4,11.6 114.5,16 113.2,16.1 113.2,11.6 111.8,11.7 111.7,10.7 115.8,10.6 115.8,11.6 "/>
<g>
	<path style="fill:#FFFFFF;" d="M117.9,16.5c-0.6-0.1-1.3-0.3-1.6-0.4l0.1-0.9c0.4,0.1,0.8,0.2,1.5,0.3c0.5,0.1,0.8-0.1,0.9-0.5
		c0-0.3-0.1-0.4-0.5-0.7l-0.6-0.4c-0.6-0.4-1-0.9-0.9-1.8c0.2-1.1,0.9-1.4,2.1-1.2c0.6,0.1,1.2,0.3,1.4,0.4l-0.1,0.9
		c-0.4-0.1-0.9-0.2-1.4-0.3c-0.5-0.1-0.8,0-0.8,0.4c0,0.3,0,0.4,0.5,0.7l0.6,0.4c0.7,0.5,1.1,1,0.9,1.8
		C119.8,16.2,119.1,16.6,117.9,16.5"/>
	<path style="fill:#FFFFFF;" d="M122.2,17.5c-1.3-0.4-1.9-1.2-1.3-3.1l0.2-0.6c0.6-1.9,1.5-2.1,2.8-1.7c0.4,0.1,1,0.4,1.2,0.5
		l-0.3,0.9c-0.3-0.1-0.7-0.3-1.1-0.4c-0.7-0.2-1.1-0.1-1.5,1.1l-0.2,0.6c-0.4,1.1-0.1,1.5,0.6,1.7c0.4,0.1,0.8,0.2,1.2,0.3l-0.3,0.9
		C123.3,17.7,122.6,17.6,122.2,17.5"/>
</g>
<polygon style="fill:#FFFFFF;" points="126.7,19.3 127.7,17.3 126.1,16.5 125.1,18.5 124,17.9 126.4,13.1 127.5,13.7 126.6,15.6 
	128.2,16.4 129.2,14.5 130.2,15.1 127.8,19.9 "/>
<g>
	<path style="fill:#FFFFFF;" d="M132.4,18.6c0.1-0.2,0.3-0.5,0.4-0.7l0,0c-0.2,0.2-0.4,0.4-0.6,0.6l-1.2,0.9l0.8,0.6L132.4,18.6z
		 M130.7,22.1l0.6-1.3l-1.1-0.8l-1.1,0.9l-1-0.8l4.4-3.4l1.5,1.2l-2.2,5.1L130.7,22.1z"/>
</g>
<polygon style="fill:#FFFFFF;" points="136.1,21.2 135.2,22 136.5,23.4 135.9,24 134.5,22.6 132.8,24.2 132,23.3 136,19.6 138.2,22 
	137.5,22.7 "/>
<polygon style="fill:#FFFFFF;" points="139.6,25.6 135.9,28 135.2,27 138.9,24.6 138.1,23.4 138.9,22.8 141.2,26.2 140.3,26.7 "/>
<g>
	<path style="fill:#FFFFFF;" d="M137.4,31.1c-0.3-0.6-0.5-1.2-0.5-1.6l0.8-0.4c0.1,0.4,0.3,0.8,0.6,1.4c0.2,0.5,0.5,0.6,0.9,0.5
		c0.3-0.1,0.3-0.3,0.3-0.8l0-0.8c0-0.8,0.2-1.3,1-1.7c1-0.4,1.6,0,2.2,1.1c0.3,0.6,0.4,1.1,0.5,1.4l-0.8,0.4
		c-0.1-0.4-0.3-0.8-0.5-1.3c-0.2-0.5-0.4-0.6-0.8-0.5c-0.3,0.1-0.3,0.3-0.3,0.7l0,0.8c0,0.9-0.2,1.4-1,1.8
		C138.7,32.6,137.9,32.2,137.4,31.1"/>
	<path style="fill:#FFFFFF;" d="M138.8,34.7c-0.2-0.6-0.3-1.3-0.3-1.6l0.9-0.2c0.1,0.4,0.2,0.9,0.3,1.5c0.2,0.5,0.4,0.7,0.8,0.6
		c0.3-0.1,0.4-0.2,0.5-0.7l0.1-0.8c0.1-0.8,0.4-1.3,1.2-1.5c1-0.3,1.6,0.2,2,1.4c0.2,0.6,0.2,1.2,0.2,1.5l-0.8,0.2
		c-0.1-0.4-0.2-0.9-0.3-1.4c-0.1-0.5-0.3-0.7-0.7-0.6c-0.3,0.1-0.3,0.2-0.4,0.7l-0.1,0.7c-0.1,0.9-0.4,1.4-1.3,1.6
		C139.8,36.4,139.1,35.9,138.8,34.7"/>
	<path style="fill:#FFFFFF;" d="M139.7,39.1c-0.2-1.4,0.3-2.2,2.2-2.5l0.6-0.1c1.9-0.3,2.6,0.5,2.8,1.8c0.1,0.4,0.1,1.1,0,1.3
		l-1,0.1c0-0.3,0-0.8-0.1-1.2c-0.1-0.7-0.4-1-1.6-0.9l-0.6,0.1c-1.2,0.2-1.4,0.5-1.3,1.3c0.1,0.4,0.1,0.9,0.2,1.2l-1,0.1
		C139.9,40.1,139.7,39.5,139.7,39.1"/>
</g>
<polygon style="fill:#FFFFFF;" points="139.9,43.9 142.2,44 142.2,42.2 140,42.1 140,40.9 145.4,41.1 145.4,42.3 143.3,42.2 
	143.2,44 145.3,44.1 145.3,45.3 139.9,45.1 "/>
<g>
	<path style="fill:#FFFFFF;" d="M139.2,47.8c0.3-1.3,1.2-1.8,2.7-1.5L145,47l-0.3,1.2l-3.1-0.7c-0.9-0.2-1.3-0.1-1.5,0.5
		c-0.1,0.6,0.2,0.9,1.1,1.1l3.1,0.7l-0.3,1.2l-3.1-0.7C139.5,50,138.9,49.1,139.2,47.8"/>
</g>
<polygon style="fill:#FFFFFF;" points="138.6,50.5 143.6,52.5 143.1,53.7 139,52 138.3,53.8 137.4,53.4 "/>
<polygon style="fill:#FFFFFF;" points="137.2,53.8 141.8,56.6 140.1,59.4 139.3,58.9 140.3,57.1 139.3,56.5 138.3,58.2 137.5,57.7 
	138.5,56 137.4,55.4 136.3,57.2 135.5,56.7 "/>
<g>
	<path style="fill:#FFFFFF;" d="M131.4,61.1c0.5-0.4,1-0.8,1.3-1l0.6,0.7c-0.3,0.3-0.7,0.5-1.2,1c-0.4,0.4-0.5,0.7-0.2,1
		c0.2,0.2,0.4,0.2,0.9,0.1l0.7-0.2c0.7-0.2,1.3-0.2,1.9,0.4c0.7,0.8,0.5,1.6-0.4,2.4c-0.5,0.4-1,0.7-1.2,0.9l-0.6-0.6
		c0.4-0.3,0.7-0.5,1.1-0.9c0.4-0.3,0.5-0.6,0.2-0.9c-0.2-0.2-0.3-0.2-0.8-0.1l-0.7,0.2c-0.8,0.3-1.4,0.2-2-0.4
		C130.4,62.7,130.6,61.8,131.4,61.1"/>
	<path style="fill:#FFFFFF;" d="M127.9,63.8c1.2-0.8,2.1-0.7,3.2,0.9l0.3,0.5c1.1,1.6,0.7,2.5-0.4,3.3c-0.3,0.2-0.9,0.5-1.2,0.6
		l-0.5-0.8c0.3-0.2,0.7-0.4,1-0.6c0.6-0.4,0.7-0.8,0.1-1.8l-0.3-0.5c-0.7-1-1.1-1-1.7-0.6c-0.3,0.2-0.7,0.5-1,0.7l-0.5-0.8
		C127.1,64.4,127.6,64,127.9,63.8"/>
</g>
<polygon style="fill:#FFFFFF;" points="123.7,66.1 124.6,68.2 126.3,67.4 125.3,65.4 126.5,64.9 128.7,69.8 127.5,70.3 126.7,68.4 
	125,69.1 125.9,71 124.8,71.5 122.6,66.6 "/>
<g>
	<path style="fill:#FFFFFF;" d="M117.1,67.9l1.5-0.3l1.1,2.4c0.1,0.2,0.2,0.5,0.3,0.7l0,0c0-0.2,0-0.5,0-0.8l0-2.6l1.5-0.3l1.9,5.1
		l-1.2,0.2l-1-2.8c-0.1-0.3-0.2-0.7-0.3-1l0,0c0,0.3,0,0.7,0,1l0.1,3.1l-0.9,0.2l-1.2-2.9c-0.1-0.3-0.3-0.6-0.4-0.9l0,0
		c0,0.3,0.1,0.7,0.1,1l0.2,3l-1.2,0.2L117.1,67.9z"/>
</g>
<polygon style="fill:#FFFFFF;" points="115.8,67.9 115.9,73.3 112.5,73.4 112.5,72.4 114.6,72.4 114.6,71.2 112.6,71.2 112.6,70.3 
	114.6,70.2 114.6,68.9 112.5,69 112.5,68 "/>
<rect x="108.2" y="69.9" transform="matrix(0.1073 -0.9942 0.9942 0.1073 28.9109 173.1755)" style="fill:#FFFFFF;" width="5.4" height="1.2"/>
<polygon style="fill:#FFFFFF;" points="109.9,67.7 109.7,68.7 106.8,71.5 108.9,72 108.6,72.9 105.2,72.2 105.4,71.1 108.3,68.4 
	106.1,67.9 106.4,66.9 "/>
<rect x="100.7" y="67" transform="matrix(0.4364 -0.8998 0.8998 0.4364 -3.759 129.5324)" style="fill:#FFFFFF;" width="1.6" height="1.5"/>
<polygon style="fill:#FFFFFF;" points="99.2,63.4 98.6,64.1 97.8,63.5 95.7,66.1 96.8,66.5 96.2,67.2 94.8,66.8 94.1,66.2 
	96.8,62.7 96.1,62.1 96.6,61.3 "/>
<g>
	<path style="fill:#FFFFFF;" d="M91.9,61.5c-0.6,0.6-0.6,0.9-0.3,1.3c0.3,0.3,0.7,0.3,1.1-0.1l0.2-0.1c0.4-0.4,0.4-0.7,0.1-1
		c-0.1-0.1-0.3-0.3-0.6-0.5L91.9,61.5z M95.1,59.6c0.5,0.5,0.8,1.1,1,1.3l-0.6,0.6c-0.2-0.3-0.6-0.7-1-1.2c-0.6-0.6-0.9-0.4-1.4,0
		l-0.1,0.1c0.2,0.1,0.5,0.4,0.7,0.6c0.7,0.7,1,1.5,0.1,2.4l-0.2,0.2c-1,0.9-1.9,0.6-2.6-0.2c-0.9-1-0.9-1.9,0.3-2.9l0.9-0.8
		C93.1,58.7,94,58.4,95.1,59.6"/>
	<path style="fill:#FFFFFF;" d="M92.6,56.5c0.4,0.6,0.6,1.2,0.7,1.5l-0.7,0.5c-0.1-0.3-0.4-0.7-0.7-1.2c-0.4-0.6-0.7-0.7-1.2-0.4
		l-0.1,0.1c-0.4,0.3-0.5,0.5-0.1,1.2l0.7,1.1l-2.6,1.5L87,58l0.8-0.5l1.2,1.8l0.9-0.5l-0.3-0.4c-0.8-1.2-0.7-1.9,0.3-2.5l0.1-0.1
		C91.1,55.1,91.9,55.5,92.6,56.5"/>
</g>
<path style="fill:#FFFFFF;" d="M86.6,54.1l2.2,0.5l-0.5-1.2L86.6,54.1z M88.7,51.9l1.1-0.5l0.5,1.1L89.2,53l0.9,2l-0.8,0.4l-3.9-0.9
	l-0.4-0.9l3-1.3l-0.3-0.6l0.8-0.4L88.7,51.9z"/>
<g>
	<g>
		<polygon style="fill:#E10B23;" points="178.3,40.7 178.3,30.7 171.9,30.7 171.9,40.7 164.1,40.7 164.1,15.8 171.9,15.8 
			171.9,25.2 178.3,25.2 178.3,15.8 186.2,15.8 186.2,40.7 		"/>
		<path style="fill:#E10B23;" d="M199.9,41.5c-3.8,0-7.4-0.1-9.3-0.5v-5.4c2.2,0.2,4.5,0.7,8.2,0.7c2.3,0,3.2-0.7,3.2-2.2
			c0-1.1-0.6-1.6-2.7-2.5l-3.3-1.4c-3.7-1.5-6.1-3.2-6.1-7.6c0-5.2,3.8-7.2,10.5-7.2c3.5,0,6.4,0.3,8.1,0.6v5.2
			c-2.7-0.2-4.7-0.7-7.7-0.7c-2.2,0-3.3,0.4-3.3,1.8c0,1,0.6,1.4,2.6,2.3l3.2,1.3c4.5,1.8,6.4,3.8,6.4,7.8
			C209.8,39.1,205.9,41.5,199.9,41.5z"/>
		<path style="fill:#E10B23;" d="M224.2,41.5c-6.6,0-11.5-2.7-11.5-12v-2.1c0-9.3,5-12,11.5-12c6.5,0,11.5,2.7,11.5,12v2.1
			C235.6,38.7,230.8,41.5,224.2,41.5z M227.9,27.3c0-4.8-1.2-6.3-3.8-6.3c-2.6,0-3.8,1.5-3.8,6.3v2.1c0,4.9,1.3,6.3,3.8,6.3
			c2.5,0,3.8-1.4,3.8-6.3V27.3z"/>
	</g>
	<g>
		<polygon style="fill:#1A171B;" points="164.1,67.7 176.3,67.7 176.3,65.5 166.6,65.5 166.6,58.2 175.7,58.2 175.7,55.9 
			166.6,55.9 166.6,49.4 176.3,49.4 176.3,47.2 164.1,47.2 		"/>
		<polygon style="fill:#1A171B;" points="191.8,52.5 189,52.5 185.3,58.1 181.5,52.5 178.7,52.5 183.8,60 178.4,67.7 181.2,67.7 
			185.2,61.9 189.2,67.7 191.9,67.7 186.6,60 		"/>
		<path style="fill:#1A171B;" d="M199.7,52.1c-4.3,0-6.5,2.7-6.5,7.5v1.2c0,4.9,1.6,7.3,7,7.3c2.5,0,4.4-0.3,5.4-0.6v-2
			c-1.4,0.2-3.6,0.4-5.3,0.4c-4.2,0-4.6-2-4.6-4.6V61h10.5v-1.1C206.3,54.8,204.2,52.1,199.7,52.1z M203.7,59h-7.9v-0.3
			c0-1.9,0.5-4.4,4-4.4c3.5,0,3.9,2.6,3.9,4.4V59z"/>
		<path style="fill:#1A171B;" d="M209.3,59v2.3c0,4.3,1.9,6.9,6.1,6.9c2.2,0,3.8-0.4,4.3-0.5v-1.9c-1.9,0.2-3.2,0.3-4,0.3
			c-2.4,0-4-0.9-4-4.7V59c0-3.8,1.5-4.7,4-4.7c0.8,0,2.1,0.1,4,0.3v-1.9c-0.5-0.2-2.1-0.5-4.3-0.5C211.2,52.1,209.3,54.6,209.3,59z"
			/>
		<path style="fill:#1A171B;" d="M232.9,64.6c-2,0.9-3.6,1.4-4.8,1.4c-2.1,0-2.6-1-2.6-3.8v-9.7h-2.5v9.7c0,3.3,0.7,5.9,4.5,5.9
			c1.5,0,3.3-0.6,5.3-1.6v1.2h2.5V52.5h-2.5V64.6z"/>
		<path style="fill:#1A171B;" d="M243.7,48.6h-2.5v4h-3.1v1.9l3.1,0.2v9.7c0,2.9,1,3.9,3.8,3.9c1.2,0,2.4-0.3,2.8-0.4V66
			c-0.5,0.1-1.7,0.1-2.5,0.1c-1.4,0-1.5-0.3-1.5-2v-9.5h4.1v-2.1h-4.1V48.6z"/>
		<rect x="250.9" y="52.5" style="fill:#1A171B;" width="2.5" height="15.2"/>
		<rect x="250.9" y="46.3" style="fill:#1A171B;" width="2.5" height="3.4"/>
		<path style="fill:#1A171B;" d="M264.3,61.9c-0.5,1.5-0.8,2.8-1.2,4.2c-0.4-1.4-0.8-2.7-1.2-4.2l-2.9-9.4h-2.7l5.1,15.2h3.4
			l5.1-15.2h-2.7L264.3,61.9z"/>
		<path style="fill:#1A171B;" d="M284.3,61v-1.1c0-5.1-2-7.8-6.5-7.8c-4.3,0-6.5,2.7-6.5,7.5v1.2c0,4.9,1.6,7.3,7,7.3
			c2.5,0,4.4-0.3,5.4-0.6v-2c-1.4,0.2-3.6,0.4-5.3,0.4c-4.2,0-4.6-2-4.6-4.6V61H284.3z M273.8,58.7c0-1.9,0.5-4.4,4-4.4
			c3.5,0,3.9,2.6,3.9,4.4V59h-7.9V58.7z"/>
	</g>
</g>
</svg>
