<?xml version="1.0" encoding="utf-8"?>
<!-- Generator: Adobe Illustrator 18.1.1, SVG Export Plug-In . SVG Version: 6.00 Build 0)  -->
<svg version="1.1" id="Ebene_1" xmlns="http://www.w3.org/2000/svg" xmlns:xlink="http://www.w3.org/1999/xlink" x="0px" y="0px"
	 width="131px" height="48px" viewBox="0 0 131 48" style="enable-background:new 0 0 131 48;" xml:space="preserve">
<g>
	<g>
		<g>
			<path style="fill:#00A8E1;" d="M4.7,13.3v3h5.3v4H4.7v3.1h5.6v4H0V9.3h10.4v4H4.7z"/>
			<path style="fill:#00A8E1;" d="M14.3,9.3h7c4.8,0,9,4.2,9,9.1c0,4.9-4.1,9.1-9,9.1h-7V9.3z M20.2,23.5c1.8,0,2.9-0.5,3.9-1.5
				c0.8-0.9,1.3-2.2,1.3-3.6c0-1.3-0.5-2.6-1.3-3.5c-1-1.1-2.1-1.5-3.9-1.5h-1.1v10.2H20.2z"/>
			<path style="fill:#00A8E1;" d="M37.9,19.2c0,2.1,0.1,2.5,0.5,3.3c0.5,0.9,1.5,1.4,2.7,1.4c1.2,0,2.3-0.5,2.8-1.5
				c0.4-0.7,0.5-1.3,0.5-3.2V9.3H49v10.5c0,2.7-0.5,4.1-1.8,5.6C45.8,27.2,43.6,28,41,28c-2.8,0-5.2-1-6.5-2.7
				c-1-1.3-1.3-2.8-1.3-5.4V9.3h4.7V19.2z"/>
		</g>
		<g>
			<path style="fill:#969696;" d="M99.6,19.2c0,2.1,0.1,2.5,0.5,3.3c0.5,0.9,1.5,1.4,2.7,1.4c1.2,0,2.3-0.5,2.8-1.5
				c0.4-0.7,0.5-1.3,0.5-3.2V9.3h4.7v10.5c0,2.7-0.5,4.1-1.8,5.6c-1.5,1.7-3.6,2.6-6.3,2.6c-2.8,0-5.2-1-6.5-2.7
				c-1-1.3-1.3-2.8-1.3-5.4V9.3h4.7V19.2z"/>
			<path style="fill:#969696;" d="M118.2,24.4l-1.3,3.2h-5l7-18.2h5.2l6.9,18.2h-5.1l-1.2-3.2H118.2z M121.5,15l-2,5.8h3.9L121.5,15
				z"/>
		</g>
		<g>
			<path style="fill:#969696;" d="M86.2,6c2.8,3.2,4.3,7.3,4.3,11.7c0,10.2-7.9,17.7-18.6,17.7c-10.5,0-18.3-7.7-18.3-18
				c0-5.2,2.5-10.3,6.7-13.6C63.5,1.3,67.8,0,72.1,0C77.9,0,82.7,2,86.2,6z M62.7,17.6c0,5.2,4.2,9.5,9.4,9.5c5.1,0,9.4-4.2,9.4-9.4
				s-4.2-9.3-9.4-9.3C67,8.4,62.7,12.5,62.7,17.6z"/>
		</g>
	</g>
	<path style="fill:#00A8E1;" d="M93.9,37.3c0,0.1,0,0.2,0,0.2c-1.3,3.6-3.4,6.6-6.8,8.6c-1.8,1-3.7,1.6-5.7,1.8
		c-2.5,0.2-4.9,0-7.3-0.6c-1.2-0.3-2.3-0.9-3.4-1.5c-3.5-1.9-7-3.8-10.7-5.3c-1.4-0.6-2.7-1.1-4.2-1.3c-1.3-0.2-2.7-0.1-3.9,0.5
		c-1.1,0.6-1.7,1.5-2.2,2.6c-0.2,0.4-0.3,0.9-0.4,1.3c0,0.1,0,0.2-0.2,0.2c0-0.3,0-0.6,0.1-0.9c0.4-2.6,1.5-4.7,3.6-6.3
		c1.4-1.1,3.1-1.7,4.9-1.9c2.8-0.4,5.6-0.1,8.3,0.7c3.3,0.9,6.6,2,9.7,3.5c2.2,1,4.3,2.1,6.6,3c0.9,0.4,1.8,0.7,2.8,0.9
		c1.1,0.2,2.3,0.3,3.4,0c1.5-0.4,2.7-1.4,3.6-2.6c0.7-0.8,1.2-1.7,1.6-2.7C93.8,37.2,93.8,37.2,93.9,37.3z"/>
</g>
</svg>
