<?xml version="1.0" encoding="utf-8"?>
<!-- Generator: Adobe Illustrator 18.1.1, SVG Export Plug-In . SVG Version: 6.00 Build 0)  -->
<svg version="1.1" id="Ebene_1" xmlns="http://www.w3.org/2000/svg" xmlns:xlink="http://www.w3.org/1999/xlink" x="0px" y="0px"
	 width="240px" height="70px" viewBox="48 7 240 70" style="enable-background:new 48 7 240 70;" xml:space="preserve">
<g>
	<g>
		<path style="fill:#FFFFFF;" d="M48,42C48,22.7,63.7,7,83,7c19.3,0,35,15.7,35,35c0,19.3-15.7,35-35,35C63.7,77,48,61.3,48,42"/>
		<path style="fill:#DD2930;" d="M93,38.2l-3,0.7c0.3,0.8,1.4,0.4,1.4,0.4l3-0.6C94.1,38,93,38.2,93,38.2"/>
		<path style="fill:#DD2930;" d="M92.8,39.7c-0.7,0.1-2.7,0.7-2.7,0.8c0,0.1,1.4,0.6,1.6,0.6c0.3,0.1,1.1,0,1.1-0.4
			c0-0.4,0-0.3,0-0.3l1.1-0.1C93.9,40.3,93.5,39.6,92.8,39.7"/>
		<path style="fill:#E40421;" d="M97,35.6l-23.1,1.8c0.8-1.5,1.8-1.6,2.4-1.6l22.2-1.7C98.5,34.5,98,35.4,97,35.6 M95.5,44.6
			l-2.4-0.2c0,0,0.1,0.5,0.5,0.6c0.4,0.1,1,0.1,1,0.1s-0.2,0.4-0.1,1.2c0,0.8-0.6,0.6-0.6,0.6l-2.4-0.3c0,0,0.1,0.8,0.9,0.9
			c0.8,0.1,0.7,0.1,1.1,0.1c0.4,0,0.6,0.8-0.2,0.9c-0.8,0.1-0.8,0.6-0.8,1.9c0,1.2-2,1.7-3.7,1c-1.7-0.7-5-2.2-5-2.2
			s-0.2,0.7,0.5,1.2c0.7,0.4,2.7,1.2,2.7,1.2s-1.9,2.6-2.5,3.4c-0.6,0.9-0.3,2,0.3,2.8c0.5,0.7,1.6,4.7,1.6,4.9L84.6,63
			c-2.3-5.4-8.4-9.5-15.4-7.8l-0.7-1.7c1.4-0.7,2.6-1.3,3.7-2c2.5-1.4,3.5-1.8,6.2-4.9c0.8-0.8,2.2-2.6,2.7-3.3c0,0,0.7,1.1,2.4,0.2
			l-0.1-0.8l-0.5,0.3c0,0-1,0.5-1.1-0.3c-0.2-0.7-0.4-2.1-0.6-2.8c-0.2-0.8,1.4-1.6,1.7-0.4s0.3,1.1,0.3,1.1l0.6-0.7
			c0,0-0.2-0.7-0.3-0.9c-0.6-1.5-3.5-0.1-3.2,1.1c0.3,1.4,0.5,2.4,0.5,2.4l-1.6,1.9c0,0-1-3.4-1.3-4.1c-0.3-0.7-0.1-2.2-0.1-2.2l0,0
			L95,36.6c0.1,2.1,1.4,5.2,1.8,6.8C97.2,44.9,95.5,44.6,95.5,44.6 M82.6,32.6l-0.8,2l-4.4,0.3c0,0,0.3-1.5,1.2-3
			c1.1-0.1,2.9-0.2,3.4-0.2C82.7,31.7,82.8,32.2,82.6,32.6 M82.1,24c4.1,0,5.4,2.2,5.6,4.2c0.1,0.7,0,1.3-0.2,1.8
			c0,0-1.2,3.1-1.7,4.2l-3.1,0.2l0.8-1.7c0.6-1.3-0.8-2-1.7-1.9l-2.6,0.2l-1.9,0.1c-0.6,0-1.5,0-2.1-0.7l-0.7-0.9l7-0.4l2.7-0.2
			c-0.1-0.4-0.4-0.5-0.7-0.6c-0.4-0.1-0.9-0.1-0.9-0.1l-6.3,0.4c-1.5,0-2,0-2.7-0.7l-0.7-0.8l10.4-0.7c-0.4-0.8-1.5-0.7-1.5-0.7
			l-7.5,0.4c0,0-1.9,0.2-2.9-1.6C71.4,24.6,80.4,24,82.1,24 M88.6,28.4c5.1,1.1,6.4,5.2,6.4,5.2l-8.2,0.6c0.4-1.2,1.6-4.2,1.6-4.2
			C88.5,29.5,88.6,29,88.6,28.4 M83,19.6c-12.4,0-22.4,10-22.4,22.4c0,12.4,10,22.4,22.4,22.4c12.4,0,22.4-10,22.4-22.4
			C105.4,29.6,95.4,19.6,83,19.6"/>
		<path d="M83,65.6C70,65.6,59.4,55,59.4,42C59.4,29,70,18.4,83,18.4S106.6,29,106.6,42C106.6,55,96,65.6,83,65.6 M54.3,46
			c-2.2,0-4-1.8-4-4c0-2.2,1.8-4,4-4c2.2,0,4,1.8,4,4C58.3,44.1,56.5,46,54.3,46 M83,8.3C64.4,8.3,49.3,23.4,49.3,42
			c0,18.6,15.1,33.7,33.7,33.7c18.6,0,33.7-15.1,33.7-33.7C116.7,23.4,101.6,8.3,83,8.3"/>
		<path style="fill:#E40421;" d="M55.1,42.7v1.8h-1.5v-1.8h-1.8v-1.5h1.8v-1.8h1.5v1.8h1.8v1.5H55.1z M54.3,38.4
			c-1.9,0-3.5,1.6-3.5,3.5c0,1.9,1.6,3.5,3.5,3.5c1.9,0,3.5-1.6,3.5-3.5C57.8,40,56.2,38.4,54.3,38.4"/>
	</g>
	<polygon style="fill:#FFFFFF;" points="59.8,30.4 57.7,29.5 56.9,31.1 59,32.1 58.5,33.2 53.6,31 54.1,29.8 56,30.7 56.7,29 
		54.8,28.2 55.3,27.1 60.3,29.3 	"/>
	<g>
		<path style="fill:#FFFFFF;" d="M61.7,27.4c-0.4,0.5-0.8,1-1.1,1.3l-0.7-0.5c0.3-0.3,0.6-0.7,0.9-1.2c0.3-0.5,0.3-0.7,0-1
			c-0.3-0.2-0.4-0.1-0.9,0.1l-0.7,0.4c-0.7,0.4-1.2,0.5-2,0c-0.9-0.6-0.9-1.4-0.2-2.4c0.4-0.5,0.8-0.9,1-1.1l0.7,0.5
			c-0.3,0.3-0.6,0.7-0.9,1.1c-0.3,0.4-0.3,0.7,0,0.9c0.2,0.2,0.4,0.1,0.8-0.1l0.6-0.4c0.8-0.5,1.3-0.5,2,0
			C62.3,25.6,62.3,26.5,61.7,27.4"/>
		<path style="fill:#FFFFFF;" d="M62.8,21.3c-0.8-0.8-1.3-0.8-1.7-0.4c-0.4,0.4-0.4,0.9,0.4,1.7l0.4,0.4c0.8,0.8,1.3,0.8,1.7,0.4
			c0.4-0.4,0.4-0.9-0.4-1.7L62.8,21.3z M64.4,24.1c-0.9,0.9-2,1.1-3.3-0.2l-0.4-0.4c-1.4-1.3-1.2-2.4-0.4-3.3c0.9-0.9,2-1.1,3.3,0.2
			l0.4,0.4C65.4,22.1,65.3,23.2,64.4,24.1"/>
		<path style="fill:#FFFFFF;" d="M73.7,17.6l-1.3,0.6l-1.6-2.1c-0.2-0.2-0.3-0.4-0.4-0.6l0,0c0.1,0.2,0.1,0.5,0.2,0.7l0.6,2.6
			l-1.3,0.6L66.7,15l1.1-0.5l1.6,2.5c0.2,0.3,0.4,0.6,0.6,0.9l0,0c-0.1-0.3-0.2-0.6-0.2-0.9l-0.8-3l0.9-0.4l1.9,2.5
			c0.2,0.2,0.4,0.5,0.6,0.8l0,0c-0.1-0.3-0.2-0.6-0.3-1L71,12.9l1.1-0.5L73.7,17.6z"/>
	</g>
	
		<rect x="72.1" y="13.9" transform="matrix(0.285 0.9585 -0.9585 0.285 67.4293 -61.3477)" style="fill:#FFFFFF;" width="5.4" height="1.2"/>
	<g>
		<path style="fill:#FFFFFF;" d="M79,12.6c-0.1-0.6-0.4-0.7-1.1-0.6c-0.2,0-0.3,0-0.4,0.1l0.3,1.6l0.4-0.1
			C78.8,13.5,79.1,13.2,79,12.6L79,12.6z M79.8,16.2l-1.3-1.7l-0.7,0.1l0.3,1.9L77,16.7l-0.9-5.3c0.5-0.1,0.9-0.2,1.5-0.3
			c1.2-0.2,2.3-0.1,2.5,1.4l0,0.1c0.1,0.8-0.1,1.3-0.5,1.6l1.4,2L79.8,16.2z"/>
	</g>
	<polygon style="fill:#FFFFFF;" points="83.4,11.6 83.5,16 82.2,16.1 82.2,11.6 80.8,11.7 80.7,10.7 84.8,10.6 84.8,11.6 	"/>
	<g>
		<path style="fill:#FFFFFF;" d="M86.9,16.5c-0.6-0.1-1.3-0.3-1.6-0.4l0.1-0.9c0.4,0.1,0.8,0.2,1.5,0.3c0.5,0.1,0.8-0.1,0.9-0.5
			c0-0.3-0.1-0.4-0.5-0.7l-0.6-0.4c-0.6-0.4-1-0.9-0.9-1.8c0.2-1.1,0.9-1.4,2.1-1.2c0.6,0.1,1.2,0.3,1.4,0.4l-0.1,0.9
			c-0.4-0.1-0.9-0.2-1.4-0.3c-0.5-0.1-0.8,0-0.8,0.4c0,0.3,0,0.4,0.5,0.7l0.6,0.4c0.7,0.5,1.1,1,0.9,1.8
			C88.8,16.2,88.1,16.6,86.9,16.5"/>
		<path style="fill:#FFFFFF;" d="M91.2,17.5c-1.3-0.4-1.9-1.2-1.3-3.1l0.2-0.6c0.6-1.9,1.5-2.1,2.8-1.7c0.4,0.1,1,0.4,1.2,0.5
			l-0.3,0.9c-0.3-0.1-0.7-0.3-1.1-0.4c-0.7-0.2-1.1-0.1-1.5,1.1l-0.2,0.6c-0.4,1.1-0.1,1.5,0.6,1.7c0.4,0.1,0.8,0.2,1.2,0.3
			l-0.3,0.9C92.3,17.7,91.6,17.6,91.2,17.5"/>
	</g>
	<polygon style="fill:#FFFFFF;" points="95.7,19.3 96.7,17.3 95.1,16.5 94.1,18.5 93,17.9 95.4,13.1 96.5,13.7 95.6,15.6 97.2,16.4 
		98.2,14.5 99.2,15.1 96.8,19.9 	"/>
	<g>
		<path style="fill:#FFFFFF;" d="M101.4,18.6c0.1-0.2,0.3-0.5,0.4-0.7l0,0c-0.2,0.2-0.4,0.4-0.6,0.6l-1.2,0.9l0.8,0.6L101.4,18.6z
			 M99.7,22.1l0.6-1.3L99.2,20l-1.1,0.9l-1-0.8l4.4-3.4l1.5,1.2l-2.2,5.1L99.7,22.1z"/>
	</g>
	<polygon style="fill:#FFFFFF;" points="105.1,21.2 104.2,22 105.5,23.4 104.9,24 103.5,22.6 101.8,24.2 101,23.3 105,19.6 
		107.2,22 106.5,22.7 	"/>
	<polygon style="fill:#FFFFFF;" points="108.6,25.6 104.9,28 104.2,27 107.9,24.6 107.1,23.4 107.9,22.8 110.2,26.2 109.3,26.7 	"/>
	<g>
		<path style="fill:#FFFFFF;" d="M106.4,31.1c-0.3-0.6-0.5-1.2-0.5-1.6l0.8-0.4c0.1,0.4,0.3,0.8,0.6,1.4c0.2,0.5,0.5,0.6,0.9,0.5
			c0.3-0.1,0.3-0.3,0.3-0.8l0-0.8c0-0.8,0.2-1.3,1-1.7c1-0.4,1.6,0,2.2,1.1c0.3,0.6,0.4,1.1,0.5,1.4l-0.8,0.4
			c-0.1-0.4-0.3-0.8-0.5-1.3c-0.2-0.5-0.4-0.6-0.8-0.5c-0.3,0.1-0.3,0.3-0.3,0.7l0,0.8c0,0.9-0.2,1.4-1,1.8
			C107.7,32.6,106.9,32.2,106.4,31.1"/>
		<path style="fill:#FFFFFF;" d="M107.8,34.7c-0.2-0.6-0.3-1.3-0.3-1.6l0.9-0.2c0.1,0.4,0.2,0.9,0.3,1.5c0.2,0.5,0.4,0.7,0.8,0.6
			c0.3-0.1,0.4-0.2,0.5-0.7l0.1-0.8c0.1-0.8,0.4-1.3,1.2-1.5c1-0.3,1.6,0.2,2,1.4c0.2,0.6,0.2,1.2,0.2,1.5l-0.8,0.2
			c-0.1-0.4-0.2-0.9-0.3-1.4c-0.1-0.5-0.3-0.7-0.7-0.6c-0.3,0.1-0.3,0.2-0.4,0.7l-0.1,0.7c-0.1,0.9-0.4,1.4-1.3,1.6
			C108.8,36.4,108.1,35.9,107.8,34.7"/>
		<path style="fill:#FFFFFF;" d="M108.7,39.1c-0.2-1.4,0.3-2.2,2.2-2.5l0.6-0.1c1.9-0.3,2.6,0.5,2.8,1.8c0.1,0.4,0.1,1.1,0,1.3
			l-1,0.1c0-0.3,0-0.8-0.1-1.2c-0.1-0.7-0.4-1-1.6-0.9l-0.6,0.1c-1.2,0.2-1.4,0.5-1.3,1.3c0.1,0.4,0.1,0.9,0.2,1.2l-1,0.1
			C108.9,40.1,108.7,39.5,108.7,39.1"/>
	</g>
	<polygon style="fill:#FFFFFF;" points="108.9,43.9 111.2,44 111.2,42.2 109,42.1 109,40.9 114.4,41.1 114.4,42.3 112.3,42.2 
		112.2,44 114.3,44.1 114.3,45.3 108.9,45.1 	"/>
	<g>
		<path style="fill:#FFFFFF;" d="M108.2,47.8c0.3-1.3,1.2-1.8,2.7-1.5L114,47l-0.3,1.2l-3.1-0.7c-0.9-0.2-1.3-0.1-1.5,0.5
			c-0.1,0.6,0.2,0.9,1.1,1.1l3.1,0.7l-0.3,1.2l-3.1-0.7C108.5,50,107.9,49.1,108.2,47.8"/>
	</g>
	<polygon style="fill:#FFFFFF;" points="107.6,50.5 112.6,52.5 112.1,53.7 108,52 107.3,53.8 106.4,53.4 	"/>
	<polygon style="fill:#FFFFFF;" points="106.2,53.8 110.8,56.6 109.1,59.4 108.3,58.9 109.3,57.1 108.3,56.5 107.3,58.2 106.5,57.7 
		107.5,56 106.4,55.4 105.3,57.2 104.5,56.7 	"/>
	<g>
		<path style="fill:#FFFFFF;" d="M100.4,61.1c0.5-0.4,1-0.8,1.3-1l0.6,0.7c-0.3,0.3-0.7,0.5-1.2,1c-0.4,0.4-0.5,0.7-0.2,1
			c0.2,0.2,0.4,0.2,0.9,0.1l0.7-0.2c0.7-0.2,1.3-0.2,1.9,0.4c0.7,0.8,0.5,1.6-0.4,2.4c-0.5,0.4-1,0.7-1.2,0.9l-0.6-0.6
			c0.4-0.3,0.7-0.5,1.1-0.9c0.4-0.3,0.5-0.6,0.2-0.9c-0.2-0.2-0.3-0.2-0.8-0.1l-0.7,0.2c-0.8,0.3-1.4,0.2-2-0.4
			C99.4,62.7,99.6,61.8,100.4,61.1"/>
		<path style="fill:#FFFFFF;" d="M96.9,63.8c1.2-0.8,2.1-0.7,3.2,0.9l0.3,0.5c1.1,1.6,0.7,2.5-0.4,3.3c-0.3,0.2-0.9,0.5-1.2,0.6
			l-0.5-0.8c0.3-0.2,0.7-0.4,1-0.6c0.6-0.4,0.7-0.8,0.1-1.8l-0.3-0.5c-0.7-1-1.1-1-1.7-0.6c-0.3,0.2-0.7,0.5-1,0.7l-0.5-0.8
			C96.1,64.4,96.6,64,96.9,63.8"/>
	</g>
	<polygon style="fill:#FFFFFF;" points="92.7,66.1 93.6,68.2 95.3,67.4 94.3,65.4 95.5,64.9 97.7,69.8 96.5,70.3 95.7,68.4 94,69.1 
		94.9,71 93.8,71.5 91.6,66.6 	"/>
	<g>
		<path style="fill:#FFFFFF;" d="M86.1,67.9l1.5-0.3l1.1,2.4c0.1,0.2,0.2,0.5,0.3,0.7l0,0c0-0.2,0-0.5,0-0.8l0-2.6l1.5-0.3l1.9,5.1
			l-1.2,0.2l-1-2.8c-0.1-0.3-0.2-0.7-0.3-1l0,0c0,0.3,0,0.7,0,1l0.1,3.1l-0.9,0.2L87.6,70c-0.1-0.3-0.3-0.6-0.4-0.9l0,0
			c0,0.3,0.1,0.7,0.1,1l0.2,3l-1.2,0.2L86.1,67.9z"/>
	</g>
	<polygon style="fill:#FFFFFF;" points="84.8,67.9 84.9,73.3 81.5,73.4 81.5,72.4 83.6,72.4 83.6,71.2 81.6,71.2 81.6,70.3 
		83.6,70.2 83.6,68.9 81.5,69 81.5,68 	"/>
	
		<rect x="77.2" y="69.9" transform="matrix(0.1073 -0.9942 0.9942 0.1073 1.238 142.3546)" style="fill:#FFFFFF;" width="5.4" height="1.2"/>
	<polygon style="fill:#FFFFFF;" points="78.9,67.7 78.7,68.7 75.8,71.5 77.9,72 77.6,72.9 74.2,72.2 74.4,71.1 77.3,68.4 75.1,67.9 
		75.4,66.9 	"/>
	
		<rect x="69.7" y="67" transform="matrix(0.4364 -0.8998 0.8998 0.4364 -21.2311 101.6398)" style="fill:#FFFFFF;" width="1.6" height="1.5"/>
	<polygon style="fill:#FFFFFF;" points="68.2,63.4 67.6,64.1 66.8,63.5 64.7,66.1 65.8,66.5 65.2,67.2 63.8,66.8 63.1,66.2 
		65.8,62.7 65.1,62.1 65.6,61.3 	"/>
	<g>
		<path style="fill:#FFFFFF;" d="M60.9,61.5c-0.6,0.6-0.6,0.9-0.3,1.3c0.3,0.3,0.7,0.3,1.1-0.1l0.2-0.1c0.4-0.4,0.4-0.7,0.1-1
			c-0.1-0.1-0.3-0.3-0.6-0.5L60.9,61.5z M64.1,59.6c0.5,0.5,0.8,1.1,1,1.3l-0.6,0.6c-0.2-0.3-0.6-0.7-1-1.2c-0.6-0.6-0.9-0.4-1.4,0
			l-0.1,0.1c0.2,0.1,0.5,0.4,0.7,0.6c0.7,0.7,1,1.5,0.1,2.4l-0.2,0.2c-1,0.9-1.9,0.6-2.6-0.2c-0.9-1-0.9-1.9,0.3-2.9l0.9-0.8
			C62.1,58.7,63,58.4,64.1,59.6"/>
		<path style="fill:#FFFFFF;" d="M61.6,56.5c0.4,0.6,0.6,1.2,0.7,1.5l-0.7,0.5c-0.1-0.3-0.4-0.7-0.7-1.2c-0.4-0.6-0.7-0.7-1.2-0.4
			l-0.1,0.1c-0.4,0.3-0.5,0.5-0.1,1.2l0.7,1.1l-2.6,1.5L56,58l0.8-0.5l1.2,1.8l0.9-0.5l-0.3-0.4c-0.8-1.2-0.7-1.9,0.3-2.5l0.1-0.1
			C60.1,55.1,60.9,55.5,61.6,56.5"/>
	</g>
	<path style="fill:#FFFFFF;" d="M55.6,54.1l2.2,0.5l-0.5-1.2L55.6,54.1z M57.7,51.9l1.1-0.5l0.5,1.1L58.2,53l0.9,2l-0.8,0.4
		l-3.9-0.9l-0.4-0.9l3-1.3l-0.3-0.6l0.8-0.4L57.7,51.9z"/>
	<g>
		<g>
			<path d="M144.4,67.7l-8.6-9.9v9.9h-2.5V47.2h2.5v9.7l8.8-9.7h3.3l-9.3,10.1l9.3,10.5H144.4z"/>
			<path d="M159,67.7v-1c-0.9,0.6-2.6,1.4-4.8,1.4c-2.9,0-4.5-1.3-4.5-4.3v-0.6c0-4,2.7-4.7,7-4.7h2.3v-1.1c0-2.6-0.5-3.2-3.6-3.2
				c-1.7,0-3,0.1-4.7,0.3v-1.8c0.4-0.2,2.5-0.7,4.9-0.7c5.1,0,5.9,1.9,5.9,5.3v10.3H159z M158.9,60.4h-2.3c-3.2,0-4.5,0.4-4.5,2.8
				V64c0,1.7,1.1,2.2,2.5,2.2c1.8,0,3.6-0.8,4.2-1.2V60.4z"/>
			<path d="M174.8,67.7V67c-1,0.6-2.5,1.2-4.3,1.2c-3.6,0-5.7-2-5.7-6.5V59c0-5.5,2.7-6.9,6.3-6.9c1.2,0,2.4,0.1,3.6,0.4v-6.2h2.5
				v21.4H174.8z M174.7,54.6c-1.2-0.2-2.6-0.4-3.4-0.4c-2.5,0-4,0.7-4,4.8v2.6c0,3,1.1,4.4,3.7,4.4c1.4,0,2.6-0.4,3.7-0.9V54.6z"/>
			<path d="M183.4,61v0.3c0,2.6,0.4,4.6,4.6,4.6c1.7,0,3.9-0.2,5.3-0.4v2c-1.1,0.3-2.9,0.6-5.4,0.6c-5.4,0-7-2.4-7-7.3v-1.2
				c0-4.8,2.1-7.5,6.4-7.5c4.5,0,6.5,2.7,6.5,7.8V61H183.4z M191.3,58.7c0-1.9-0.4-4.4-3.9-4.4c-3.5,0-4,2.6-4,4.4V59h7.9V58.7z"/>
			<path d="M200,55.6v12.1h-2.5V52.5h2.4v1.2c1.4-1.1,3.3-1.6,5.4-1.6v2.2C203.4,54.3,201.1,54.9,200,55.6z"/>
			<path d="M212.3,68.1c-2.1,0-4.5-0.4-5-0.6v-1.9c0.9,0.1,3.1,0.4,4.9,0.4c2.6,0,3.3-0.7,3.3-2c0-1.4-0.5-1.8-3.1-2.9l-1.1-0.5
				c-2.9-1.2-4.2-2.5-4.2-4.7c0-2.5,1.7-3.8,5.5-3.8c2,0,4,0.4,4.6,0.6v1.9c-1.6-0.2-3.4-0.3-4.5-0.3c-2.2,0-3.1,0.3-3.1,1.7
				c0,1.2,0.5,1.7,2.7,2.6l1.1,0.5c3.5,1.6,4.6,2.5,4.6,4.9C218,66.1,216.9,68.1,212.3,68.1z"/>
			<path d="M226.7,68.1c-4.2,0-6.1-2.5-6.1-6.9V59c0-4.4,1.9-6.8,6.1-6.8c2.2,0,3.8,0.4,4.3,0.5v1.9c-1.9-0.2-3.2-0.3-4-0.3
				c-2.4,0-4,0.9-4,4.7v2.3c0,3.8,1.5,4.7,4,4.7c0.8,0,2.1-0.1,4-0.3v1.9C230.6,67.8,229,68.1,226.7,68.1z"/>
			<path d="M244.3,67.7v-9.6c0-3-0.8-3.8-2.9-3.8c-1.7,0-3.5,0.6-4.5,1.1v12.4h-2.5V46.3h2.5v7.1c1-0.5,2.7-1.2,5-1.2
				c3.3,0,4.9,1.9,4.9,5.9v9.7H244.3z"/>
			<path d="M260.7,67.7v-1.2c-2,1-3.7,1.6-5.3,1.6c-3.8,0-4.5-2.6-4.5-5.9v-9.7h2.5v9.7c0,2.8,0.4,3.8,2.6,3.8
				c1.2,0,2.7-0.5,4.8-1.4V52.5h2.5v15.2H260.7z"/>
			<path d="M267.6,67.7V46.3h2.5v21.4H267.6z"/>
			<path d="M276.4,61v0.3c0,2.6,0.4,4.6,4.6,4.6c1.7,0,3.9-0.2,5.3-0.4v2c-1.1,0.3-2.9,0.6-5.4,0.6c-5.4,0-7-2.4-7-7.3v-1.2
				c0-4.8,2.1-7.5,6.4-7.5c4.5,0,6.5,2.7,6.5,7.8V61H276.4z M284.3,58.7c0-1.9-0.4-4.4-3.9-4.4c-3.5,0-4,2.6-4,4.4V59h7.9V58.7z"/>
		</g>
		<polygon style="fill:#E10B23;" points="147.3,40.7 147.3,30.7 140.9,30.7 140.9,40.7 133.1,40.7 133.1,15.8 140.9,15.8 
			140.9,25.2 147.3,25.2 147.3,15.8 155.2,15.8 155.2,40.7 		"/>
		<path style="fill:#E10B23;" d="M168.9,41.5c-3.8,0-7.4-0.1-9.3-0.5v-5.4c2.2,0.2,4.5,0.7,8.2,0.7c2.3,0,3.2-0.7,3.2-2.2
			c0-1.1-0.6-1.6-2.7-2.5l-3.3-1.4c-3.7-1.5-6.1-3.2-6.1-7.6c0-5.2,3.8-7.2,10.5-7.2c3.5,0,6.4,0.3,8.1,0.6v5.2
			c-2.7-0.2-4.7-0.7-7.7-0.7c-2.2,0-3.3,0.4-3.3,1.8c0,1,0.6,1.4,2.6,2.3l3.2,1.3c4.5,1.8,6.4,3.8,6.4,7.8
			C178.8,39.1,174.9,41.5,168.9,41.5z"/>
		<path style="fill:#E10B23;" d="M193.2,41.5c-6.6,0-11.5-2.7-11.5-12v-2.1c0-9.3,5-12,11.5-12c6.5,0,11.5,2.7,11.5,12v2.1
			C204.6,38.7,199.8,41.5,193.2,41.5z M196.9,27.3c0-4.8-1.2-6.3-3.8-6.3c-2.6,0-3.8,1.5-3.8,6.3v2.1c0,4.9,1.3,6.3,3.8,6.3
			c2.5,0,3.8-1.4,3.8-6.3V27.3z"/>
	</g>
</g>
</svg>
