<?xml version="1.0" encoding="utf-8"?>
<!-- Generator: Adobe Illustrator 21.0.2, SVG Export Plug-In . SVG Version: 6.00 Build 0)  -->
<svg version="1.1" id="Ebene_1" xmlns="http://www.w3.org/2000/svg" xmlns:xlink="http://www.w3.org/1999/xlink" x="0px" y="0px"
	 width="36.7px" height="92.8px" viewBox="0 0 36.7 92.8" style="enable-background:new 0 0 36.7 92.8;" xml:space="preserve">
<g>
	<path style="fill:#FFFFFF;" d="M36.7,92.8H0V78.5h10.7V47.2H0V32.8h26.1v45.7h10.7V92.8z M3,89.8h30.7v-8.4H23.1V35.8H3v8.4h10.7
		v37.3H3V89.8z M17,21.7c-6,0-10.9-4.9-10.9-10.9S11.1,0,17,0s10.9,4.9,10.9,10.9S23,21.7,17,21.7z M17,3c-4.3,0-7.9,3.5-7.9,7.9
		s3.5,7.9,7.9,7.9s7.9-3.5,7.9-7.9S21.4,3,17,3z"/>
</g>
</svg>
