<?xml version="1.0" encoding="utf-8"?>
<!-- Generator: Adobe Illustrator 18.1.1, SVG Export Plug-In . SVG Version: 6.00 Build 0)  -->
<svg version="1.1" id="Ebene_1" xmlns="http://www.w3.org/2000/svg" xmlns:xlink="http://www.w3.org/1999/xlink" x="0px" y="0px"
	 viewBox="0 0 79 95" style="enable-background:new 0 0 79 95;" xml:space="preserve">
<g>
	<g>
		<path style="fill:#FFFFFF;" d="M77.5,87.8c-0.8,0-1.5-0.7-1.5-1.5V3H8.8C8,3,7.3,2.3,7.3,1.5S8,0,8.8,0H79v86.3
			C79,87.1,78.3,87.8,77.5,87.8z"/>
	</g>
	<g>
		<path style="fill:#FFFFFF;" d="M72.1,95H0V6.8h72.1V95z M3,92h66.1V9.8H3V92z"/>
	</g>
	<g>
		<g>
			<path style="fill:#FFFFFF;" d="M57.8,54H14c-0.8,0-1.5-0.7-1.5-1.5S13.1,51,14,51h43.9c0.8,0,1.5,0.7,1.5,1.5S58.7,54,57.8,54z"
				/>
		</g>
		<g>
			<path style="fill:#FFFFFF;" d="M57.8,64H14c-0.8,0-1.5-0.7-1.5-1.5S13.1,61,14,61h43.9c0.8,0,1.5,0.7,1.5,1.5S58.7,64,57.8,64z"
				/>
		</g>
		<g>
			<path style="fill:#FFFFFF;" d="M57.8,74H14c-0.8,0-1.5-0.7-1.5-1.5S13.1,71,14,71h43.9c0.8,0,1.5,0.7,1.5,1.5S58.7,74,57.8,74z"
				/>
		</g>
	</g>
</g>
</svg>
