<?xml version="1.0" encoding="utf-8"?>
<!-- Generator: Adobe Illustrator 18.1.1, SVG Export Plug-In . SVG Version: 6.00 Build 0)  -->
<svg version="1.1" id="Ebene_1" xmlns="http://www.w3.org/2000/svg" xmlns:xlink="http://www.w3.org/1999/xlink" x="0px" y="0px"
	 viewBox="0 0 121 67" style="enable-background:new 0 0 121 67;" xml:space="preserve">
<g>
	<g>
		<path style="fill:#FFFFFF;" d="M87.7,66.7l0-22.3H66c-0.8,0-1.5-0.7-1.5-1.5c0-0.8,0.7-1.5,1.5-1.5h24.6l0,18l26.1-26.3L90.7,7.4
			l0,19.1H66c-0.8,0-1.5-0.7-1.5-1.5c0-0.8,0.7-1.5,1.5-1.5h21.6l0-23.1L121,32.9L87.7,66.7z"/>
	</g>
	<g>
		<path style="fill:#FFFFFF;" d="M32.5,66.7l0-22.3h-31c-0.8,0-1.5-0.7-1.5-1.5c0-0.8,0.7-1.5,1.5-1.5h34l0,18l26.1-26.3L35.4,7.4
			l0,19.1h-34c-0.8,0-1.5-0.7-1.5-1.5c0-0.8,0.7-1.5,1.5-1.5h31l0-23.1l33.3,32.6L32.5,66.7z"/>
	</g>
</g>
</svg>
