<?xml version="1.0" encoding="utf-8"?>
<!-- Generator: Adobe Illustrator 18.1.1, SVG Export Plug-In . SVG Version: 6.00 Build 0)  -->
<svg version="1.1" id="Ebene_1" xmlns="http://www.w3.org/2000/svg" xmlns:xlink="http://www.w3.org/1999/xlink" x="0px" y="0px"
	 width="83px" height="83px" viewBox="0 0 83 83" style="enable-background:new 0 0 83 83;" xml:space="preserve">
<g>
	<g>
		<path style="fill:#FFFFFF;" d="M41.5,83C18.6,83,0,64.4,0,41.5S18.6,0,41.5,0S83,18.6,83,41.5S64.4,83,41.5,83z M41.5,3
			C20.3,3,3,20.3,3,41.5C3,62.7,20.3,80,41.5,80S80,62.7,80,41.5C80,20.3,62.7,3,41.5,3z"/>
	</g>
	<g>
		<path style="fill:#FFFFFF;" d="M41,46H17.6c-0.8,0-1.5-0.7-1.5-1.5s0.7-1.5,1.5-1.5H38V9.8c0-0.8,0.7-1.5,1.5-1.5S41,9,41,9.8V46z
			"/>
	</g>
</g>
</svg>
