<?xml version="1.0" encoding="utf-8"?>
<!-- Generator: Adobe Illustrator 18.1.1, SVG Export Plug-In . SVG Version: 6.00 Build 0)  -->
<svg version="1.1" id="Ebene_1" xmlns="http://www.w3.org/2000/svg" xmlns:xlink="http://www.w3.org/1999/xlink" x="0px" y="0px"
	 width="410px" height="12px" viewBox="48 7 410 12" style="enable-background:new 48 7 410 12;" xml:space="preserve">
<g>
	<path style="fill:#1A171B;" d="M48,18.7V7.2h5.9v1.1h-4.6v3.9h4.3v1.1h-4.3v4.2h4.8v1.1H48z"/>
	<path style="fill:#1A171B;" d="M58.1,18.7V7.2h1.4v11.5H58.1z"/>
	<path style="fill:#1A171B;" d="M70.9,18.7L65.4,8.6v10.1h-1.3V7.2H66l5.5,10.1V7.2h1.3v11.5H70.9z"/>
	<path style="fill:#1A171B;" d="M88.1,18.9c-2.6,0-4.3-1.6-4.3-4.2V7.2h1.4v7.4c0,1.8,1,3.1,2.9,3.1c1.9,0,2.9-1.3,2.9-3.1V7.2h1.4
		v7.4C92.4,17.2,90.7,18.9,88.1,18.9z"/>
	<path style="fill:#1A171B;" d="M103.7,18.7L98.1,8.6v10.1h-1.3V7.2h1.9l5.5,10.1V7.2h1.3v11.5H103.7z"/>
	<path style="fill:#1A171B;" d="M113.8,8.3v10.3h-1.4V8.3H109V7.2h8.2v1.2H113.8z"/>
	<path style="fill:#1A171B;" d="M120.5,18.7V7.2h5.9v1.1h-4.6v3.9h4.3v1.1h-4.3v4.2h4.8v1.1H120.5z"/>
	<path style="fill:#1A171B;" d="M136.7,18.7l-1.6-3.8c-0.5-1.2-0.8-1.5-2.2-1.5H132v5.3h-1.4V7.2h3.2c1.9,0,3.6,0.9,3.6,3
		c0,1.5-1.2,2.5-2.6,2.7c0.8,0.2,1.2,0.7,1.6,1.5l1.9,4.4H136.7z M133.3,8.3H132v4h1.2c1.3,0,2.8-0.5,2.8-2.1
		C136,8.6,134.8,8.3,133.3,8.3z"/>
	<path style="fill:#1A171B;" d="M148.7,18.7l-5.5-10.1v10.1h-1.3V7.2h1.9l5.5,10.1V7.2h1.3v11.5H148.7z"/>
	<path style="fill:#1A171B;" d="M155.2,18.7V7.2h5.9v1.1h-4.6v3.9h4.3v1.1h-4.3v4.2h4.8v1.1H155.2z"/>
	<path style="fill:#1A171B;" d="M172.3,18.7v-5.3h-5.6v5.3h-1.4V7.2h1.4v5h5.6v-5h1.4v11.5H172.3z"/>
	<path style="fill:#1A171B;" d="M189.1,18.7V8.3L185,18.7h-1.3l-4.1-10.4v10.4h-1.3V7.2h2.1l3.9,10l3.9-10h2.1v11.5H189.1z"/>
	<path style="fill:#1A171B;" d="M195.1,18.7V7.2h5.9v1.1h-4.6v3.9h4.3v1.1h-4.3v4.2h4.8v1.1H195.1z"/>
	<path style="fill:#1A171B;" d="M212,18.7l-5.5-10.1v10.1h-1.3V7.2h1.9l5.5,10.1V7.2h1.3v11.5H212z"/>
	<path style="fill:#1A171B;" d="M229.4,18.7h-1.5l-4.3-11.5h1.4l3.6,10.2l3.7-10.2h1.4L229.4,18.7z"/>
	<path style="fill:#1A171B;" d="M241.4,18.9c-3.6,0-5.2-2.7-5.2-5.9c0-3.2,1.7-5.9,5.2-5.9c3.5,0,5.2,2.7,5.2,5.9
		C246.6,16.1,244.9,18.9,241.4,18.9z M241.4,8.1c-2.6,0-3.7,2.5-3.7,4.8s1.1,4.8,3.7,4.8c2.7,0,3.7-2.5,3.7-4.8S244.1,8.1,241.4,8.1
		z"/>
	<path style="fill:#1A171B;" d="M257.5,18.7l-5.5-10.1v10.1h-1.3V7.2h1.9l5.5,10.1V7.2h1.3v11.5H257.5z"/>
	<path style="fill:#1A171B;" d="M274.9,18.7h-1.5l-4.3-11.5h1.4l3.6,10.2l3.7-10.2h1.4L274.9,18.7z"/>
	<path style="fill:#1A171B;" d="M289.6,18.7l-1.2-3.1h-5.6l-1.2,3.1h-1.3l4.6-11.5h1.6l4.6,11.5H289.6z M285.6,8.3l-2.4,6.2h4.8
		L285.6,8.3z"/>
	<path style="fill:#1A171B;" d="M301.1,18.7l-5.5-10.1v10.1h-1.3V7.2h1.9l5.5,10.1V7.2h1.3v11.5H301.1z"/>
	<path style="fill:#1A171B;" d="M311.2,8.3v10.3h-1.4V8.3h-3.4V7.2h8.2v1.2H311.2z"/>
	<path style="fill:#1A171B;" d="M325.2,18.7l-1.2-3.1h-5.6l-1.2,3.1h-1.3l4.6-11.5h1.6l4.6,11.5H325.2z M321.2,8.3l-2.4,6.2h4.8
		L321.2,8.3z"/>
	<path style="fill:#1A171B;" d="M334.8,18.9c-3.6,0-5.9-2.3-5.9-5.9c0-3.5,2.4-5.9,5.9-5.9c1,0,2.2,0.2,3.1,0.6l-0.1,1.2
		c-0.9-0.5-1.9-0.6-2.9-0.6c-2.9,0-4.6,2-4.6,4.8c0,2.8,1.6,4.8,4.5,4.8c0.8,0,1.6-0.1,2.3-0.4v-3.7h-2.5v-1.1h3.8v5.7
		C337.2,18.6,336,18.9,334.8,18.9z"/>
	<path style="fill:#1A171B;" d="M342.7,18.7V7.2h5.9v1.1h-4.6v3.9h4.3v1.1h-4.3v4.2h4.8v1.1H342.7z"/>
	<path style="fill:#1A171B;" d="M359.2,18.7V7.2h5.9v1.1h-4.6v3.9h4.3v1.1h-4.3v4.2h4.8v1.1H359.2z"/>
	<path style="fill:#1A171B;" d="M371.7,18.7h-2.4V7.2h3c3.7,0,5.9,2,5.9,5.8C378.2,17,375.5,18.7,371.7,18.7z M372.3,8.3h-1.6v9.3h1
		c3.2,0,5.1-1.3,5.1-4.6C376.8,10.1,375.2,8.3,372.3,8.3z"/>
	<path style="fill:#1A171B;" d="M386.4,18.9c-2.6,0-4.3-1.6-4.3-4.2V7.2h1.4v7.4c0,1.8,1,3.1,2.9,3.1c1.9,0,2.9-1.3,2.9-3.1V7.2h1.4
		v7.4C390.7,17.2,389,18.9,386.4,18.9z"/>
	<path style="fill:#1A171B;" d="M400.6,18.9c-3.6,0-5.9-2.3-5.9-5.9c0-3.4,2.4-5.9,5.9-5.9c0.8,0,1.9,0.1,2.7,0.4l-0.1,1.2
		c-0.7-0.3-1.7-0.5-2.5-0.5c-2.9,0-4.6,2-4.6,4.8c0,2.8,1.6,4.8,4.5,4.8c0.9,0,1.8-0.1,2.6-0.5l0.1,1.2
		C402.6,18.7,401.4,18.9,400.6,18.9z"/>
	<path style="fill:#1A171B;" d="M414.9,18.7l-1.2-3.1h-5.6l-1.2,3.1h-1.3l4.6-11.5h1.6l4.6,11.5H414.9z M410.9,8.3l-2.4,6.2h4.8
		L410.9,8.3z"/>
	<path style="fill:#1A171B;" d="M422.3,8.3v10.3h-1.4V8.3h-3.4V7.2h8.2v1.2H422.3z"/>
	<path style="fill:#1A171B;" d="M429,18.7V7.2h1.4v11.5H429z"/>
	<path style="fill:#1A171B;" d="M439.6,18.9c-3.6,0-5.2-2.7-5.2-5.9c0-3.2,1.7-5.9,5.2-5.9c3.5,0,5.2,2.7,5.2,5.9
		C444.8,16.1,443.1,18.9,439.6,18.9z M439.6,8.1c-2.6,0-3.7,2.5-3.7,4.8s1.1,4.8,3.7,4.8c2.7,0,3.7-2.5,3.7-4.8S442.3,8.1,439.6,8.1
		z"/>
	<path style="fill:#1A171B;" d="M455.7,18.7l-5.5-10.1v10.1h-1.3V7.2h1.9l5.5,10.1V7.2h1.3v11.5H455.7z"/>
</g>
</svg>
