<?xml version="1.0" encoding="utf-8"?>
<!-- Generator: Adobe Illustrator 18.1.1, SVG Export Plug-In . SVG Version: 6.00 Build 0)  -->
<svg version="1.1" id="Ebene_1" xmlns="http://www.w3.org/2000/svg" xmlns:xlink="http://www.w3.org/1999/xlink" x="0px" y="0px"
	 width="178px" height="70px" viewBox="0 0 178 70" style="enable-background:new 0 0 178 70;" xml:space="preserve">
<g>
	<g>
		<path style="fill:#DE0026;" d="M100.8,51.3V37.8h-8.6v13.4H81.7V17.8h10.5v12.6h8.6V17.8h10.6v33.5H100.8z"/>
		<path style="fill:#DE0026;" d="M129.8,52.1c-5.1,0-10-0.2-12.6-0.7v-7.2c3,0.2,6,0.9,11,0.9c3.1,0,4.3-0.9,4.3-2.9
			c0-1.5-0.8-2.1-3.7-3.3l-4.4-1.9c-5-2.1-8.2-4.3-8.2-10.2c0-7,5.1-9.7,14.1-9.7c4.6,0,8.6,0.4,10.9,0.9v7c-3.7-0.3-6.4-1-10.3-1
			c-2.9,0-4.4,0.5-4.4,2.4c0,1.4,0.8,1.9,3.6,3.1l4.3,1.7c6,2.4,8.6,5.1,8.6,10.5C143.1,49,137.8,52.1,129.8,52.1z"/>
		<path style="fill:#E10026;" d="M162.5,52.1c-8.9,0-15.4-3.7-15.4-16.1v-2.9c0-12.5,6.7-16.1,15.4-16.1c8.7,0,15.4,3.7,15.4,16.1
			V36C177.9,48.4,171.3,52.1,162.5,52.1z M167.5,33.1c0-6.5-1.6-8.5-5.1-8.5c-3.5,0-5.1,2-5.1,8.5v2.8c0,6.6,1.7,8.5,5.1,8.5
			c3.3,0,5.1-1.8,5.1-8.5V33.1z"/>
	</g>
	<g>
		<circle style="fill:#FFFFFF;" cx="35" cy="35" r="35"/>
		<g>
			<path style="fill:#DE0026;" d="M45,31.2l-3,0.7c0.3,0.8,1.4,0.4,1.4,0.4l3-0.6C46.1,31,45,31.2,45,31.2z"/>
			<path style="fill:#DE0026;" d="M44.8,32.7c-0.7,0.1-2.7,0.7-2.7,0.8s1.4,0.6,1.6,0.6c0.3,0.1,1.1,0,1.1-0.4c0-0.4,0-0.3,0-0.3
				l1.1-0.1C45.9,33.3,45.5,32.6,44.8,32.7z"/>
			<path style="fill:#DE0026;" d="M35,12.6c-12.4,0-22.4,10-22.4,22.4c0,12.4,10,22.4,22.4,22.4c12.4,0,22.4-10,22.4-22.4
				C57.4,22.6,47.4,12.6,35,12.6z M40.6,21.4c5.1,1.1,6.4,5.2,6.4,5.2l-8.2,0.6c0.4-1.2,1.6-4.2,1.6-4.2
				C40.5,22.5,40.6,22,40.6,21.4z M34.1,17c4.1,0,5.4,2.2,5.6,4.2c0.1,0.7,0,1.3-0.2,1.8c0,0-1.2,3.1-1.7,4.2l-3.1,0.2l0.8-1.7
				c0.6-1.3-0.8-2-1.7-1.9l-2.6,0.2l-1.9,0.1c-0.6,0-1.5,0-2.1-0.7l-0.7-0.9l7-0.4l2.7-0.2c-0.1-0.4-0.4-0.5-0.7-0.6
				c-0.4-0.1-0.9-0.1-0.9-0.1l-6.3,0.4c-1.5,0-2,0-2.7-0.7l-0.7-0.8l10.4-0.7c-0.4-0.8-1.5-0.7-1.5-0.7l-7.5,0.4
				c0,0-1.9,0.2-2.9-1.6C23.4,17.6,32.4,17,34.1,17z M34.6,25.6l-0.8,2l-4.4,0.3c0,0,0.3-1.5,1.2-3c1.1-0.1,2.9-0.2,3.4-0.2
				C34.7,24.7,34.8,25.2,34.6,25.6z M47.5,37.6l-2.4-0.2c0,0,0.1,0.5,0.5,0.6c0.4,0.1,1,0.1,1,0.1s-0.2,0.4-0.1,1.2
				c0,0.8-0.6,0.6-0.6,0.6l-2.4-0.3c0,0,0.1,0.8,0.9,0.9c0.8,0.1,0.7,0.1,1.1,0.1c0.4,0,0.6,0.8-0.2,0.9c-0.8,0.1-0.8,0.6-0.8,1.9
				c0,1.2-2,1.7-3.7,1c-1.7-0.7-5-2.2-5-2.2s-0.2,0.7,0.5,1.2c0.7,0.4,2.7,1.2,2.7,1.2s-1.9,2.6-2.5,3.4c-0.6,0.9-0.3,2,0.3,2.8
				c0.5,0.7,1.6,4.7,1.6,4.9L36.6,56c-2.3-5.4-8.4-9.5-15.4-7.8l-0.7-1.7c1.4-0.7,2.6-1.3,3.7-2c2.5-1.4,3.5-1.8,6.2-4.9
				c0.8-0.8,2.2-2.6,2.7-3.3c0,0,0.7,1.1,2.4,0.2l-0.1-0.8l-0.5,0.3c0,0-1,0.5-1.1-0.3c-0.2-0.7-0.4-2.1-0.6-2.8
				c-0.2-0.8,1.4-1.6,1.7-0.4c0.3,1.2,0.3,1.1,0.3,1.1l0.6-0.7c0,0-0.2-0.7-0.3-0.9c-0.6-1.5-3.5-0.1-3.2,1.1
				c0.3,1.4,0.5,2.4,0.5,2.4l-1.6,1.9c0,0-1-3.4-1.3-4.1c-0.3-0.7-0.1-2.2-0.1-2.2l0,0L47,29.6c0.1,2.1,1.4,5.2,1.8,6.8
				C49.2,37.9,47.5,37.6,47.5,37.6z M49,28.6l-23.1,1.8c0.8-1.5,1.8-1.6,2.4-1.6l22.2-1.7C50.5,27.5,50,28.4,49,28.6z"/>
		</g>
		<g>
			<circle style="fill:none;" cx="35" cy="35" r="23.6"/>
			<path d="M35,1.3C16.4,1.3,1.3,16.4,1.3,35S16.4,68.7,35,68.7S68.7,53.6,68.7,35S53.6,1.3,35,1.3z M6.3,39c-2.2,0-4-1.8-4-4
				c0-2.2,1.8-4,4-4c2.2,0,4,1.8,4,4C10.3,37.1,8.5,39,6.3,39z M35,58.6C22,58.6,11.4,48,11.4,35C11.4,22,22,11.4,35,11.4
				S58.6,22,58.6,35C58.6,48,48,58.6,35,58.6z"/>
		</g>
		<g>
			<path style="fill:#DE0026;" d="M6.3,31.4c-1.9,0-3.5,1.6-3.5,3.5c0,1.9,1.6,3.5,3.5,3.5c1.9,0,3.5-1.6,3.5-3.5
				C9.8,33,8.2,31.4,6.3,31.4z M7.1,35.7v1.8H5.6v-1.8H3.8v-1.5h1.8v-1.8h1.5v1.8h1.8v1.5H7.1z"/>
		</g>
		<g>
			<path style="fill:#FFFFFF;" d="M11.8,23.4l-2.1-0.9l-0.8,1.7l2.1,0.9l-0.5,1.1L5.6,24l0.5-1.1L8,23.7L8.7,22l-1.9-0.9l0.5-1.1
				l4.9,2.2L11.8,23.4z"/>
			<path style="fill:#FFFFFF;" d="M13.7,20.4c-0.4,0.5-0.8,1-1.1,1.3l-0.7-0.5c0.3-0.3,0.6-0.7,0.9-1.2c0.3-0.5,0.3-0.7,0-1
				c-0.3-0.2-0.4-0.1-0.9,0.1l-0.7,0.4c-0.7,0.4-1.2,0.5-2,0c-0.9-0.6-0.9-1.4-0.2-2.4c0.4-0.5,0.8-0.9,1-1.1l0.7,0.5
				c-0.3,0.3-0.6,0.7-0.9,1.1c-0.3,0.4-0.3,0.7,0,0.9c0.2,0.2,0.4,0.1,0.8-0.1l0.6-0.4c0.8-0.5,1.3-0.5,2,0
				C14.3,18.6,14.3,19.5,13.7,20.4z"/>
			<path style="fill:#FFFFFF;" d="M16.4,17.1c-0.9,0.9-2,1.1-3.3-0.2l-0.4-0.4c-1.4-1.3-1.2-2.4-0.4-3.3c0.9-0.9,2-1.1,3.3,0.2
				l0.4,0.4C17.4,15.1,17.3,16.2,16.4,17.1z M14.8,14.3c-0.8-0.8-1.3-0.8-1.7-0.4c-0.4,0.4-0.4,0.9,0.4,1.7l0.4,0.4
				c0.8,0.8,1.3,0.8,1.7,0.4c0.4-0.4,0.4-0.9-0.4-1.7L14.8,14.3z"/>
			<path style="fill:#FFFFFF;" d="M25.7,10.6l-1.3,0.6l-1.6-2.1c-0.2-0.2-0.3-0.4-0.4-0.6l0,0c0.1,0.2,0.1,0.5,0.2,0.7l0.6,2.6
				l-1.3,0.6L18.7,8l1.1-0.5l1.6,2.5c0.2,0.3,0.4,0.6,0.6,0.9l0,0c-0.1-0.3-0.2-0.6-0.2-0.9l-0.8-3l0.9-0.4L23.7,9
				c0.2,0.2,0.4,0.5,0.6,0.8l0,0c-0.1-0.3-0.2-0.6-0.3-1L23,5.9l1.1-0.5L25.7,10.6z"/>
			<path style="fill:#FFFFFF;" d="M27,10.3l-1.5-5.2l1.2-0.3l1.5,5.2L27,10.3z"/>
			<path style="fill:#FFFFFF;" d="M31.8,9.2l-1.3-1.7l-0.7,0.1l0.3,1.9L29,9.7l-0.9-5.3C28.6,4.2,29,4.1,29.6,4
				c1.2-0.2,2.3-0.1,2.5,1.4l0,0.1c0.1,0.8-0.1,1.3-0.5,1.6L33,9L31.8,9.2z M31,5.6C30.9,5,30.5,4.9,29.8,5c-0.2,0-0.3,0-0.4,0.1
				l0.3,1.6l0.4-0.1C30.8,6.5,31.1,6.2,31,5.6L31,5.6z"/>
			<path style="fill:#FFFFFF;" d="M35.4,4.6L35.5,9l-1.2,0l-0.1-4.4l-1.4,0l0-1l4-0.1l0,1L35.4,4.6z"/>
			<path style="fill:#FFFFFF;" d="M38.9,9.5c-0.6-0.1-1.3-0.3-1.6-0.4l0.1-0.9c0.4,0.1,0.8,0.2,1.5,0.3c0.5,0.1,0.8-0.1,0.9-0.5
				c0-0.3-0.1-0.4-0.5-0.7l-0.6-0.4c-0.6-0.4-1-0.9-0.9-1.8c0.2-1.1,0.9-1.4,2.1-1.2C40.5,4,41,4.2,41.3,4.3l-0.1,0.9
				c-0.4-0.1-0.9-0.2-1.4-0.3c-0.5-0.1-0.8,0-0.8,0.4c0,0.3,0,0.4,0.5,0.7l0.6,0.4c0.7,0.5,1.1,1,0.9,1.8
				C40.8,9.2,40.1,9.6,38.9,9.5z"/>
			<path style="fill:#FFFFFF;" d="M43.2,10.5c-1.3-0.4-1.9-1.2-1.3-3.1l0.2-0.6c0.6-1.9,1.5-2.1,2.8-1.7c0.4,0.1,1,0.4,1.2,0.5
				l-0.3,0.9c-0.3-0.1-0.7-0.3-1.1-0.4c-0.7-0.2-1.1-0.1-1.5,1.1l-0.2,0.6c-0.4,1.1-0.1,1.5,0.6,1.7c0.4,0.1,0.8,0.2,1.2,0.3
				l-0.3,0.9C44.3,10.7,43.6,10.6,43.2,10.5z"/>
			<path style="fill:#FFFFFF;" d="M47.7,12.3l1-2l-1.6-0.8l-1,2L45,10.9l2.5-4.8l1.1,0.6l-1,1.9l1.6,0.8l1-1.9l1.1,0.6l-2.5,4.8
				L47.7,12.3z"/>
			<path style="fill:#FFFFFF;" d="M51.7,15.1l0.6-1.3L51.2,13l-1.1,0.9l-1-0.8l4.4-3.4l1.5,1.2l-2.2,5.1L51.7,15.1z M53.4,11.6
				c0.1-0.2,0.3-0.5,0.4-0.7l0,0c-0.2,0.2-0.4,0.4-0.6,0.6l-1.2,0.9l0.8,0.6L53.4,11.6z"/>
			<path style="fill:#FFFFFF;" d="M57.1,14.2L56.2,15l1.3,1.4L56.9,17l-1.3-1.4l-1.7,1.6L53,16.3l4-3.7l2.3,2.4l-0.7,0.7L57.1,14.2z
				"/>
			<path style="fill:#FFFFFF;" d="M60.6,18.6L56.9,21l-0.7-1l3.7-2.5l-0.8-1.2l0.8-0.6l2.3,3.4l-0.8,0.6L60.6,18.6z"/>
			<path style="fill:#FFFFFF;" d="M58.4,24.1c-0.3-0.6-0.5-1.2-0.5-1.6l0.8-0.4c0.1,0.4,0.3,0.8,0.6,1.4c0.2,0.5,0.5,0.6,0.9,0.5
				c0.3-0.1,0.3-0.3,0.3-0.8l0-0.8c0-0.8,0.2-1.3,1-1.7c1-0.4,1.6,0,2.2,1.1c0.3,0.6,0.4,1.1,0.5,1.4l-0.8,0.4
				c-0.1-0.4-0.3-0.8-0.5-1.3c-0.2-0.5-0.4-0.6-0.8-0.5c-0.3,0.1-0.3,0.3-0.3,0.7l0,0.8c0,0.9-0.2,1.4-1,1.8
				C59.7,25.6,58.9,25.2,58.4,24.1z"/>
			<path style="fill:#FFFFFF;" d="M59.8,27.7c-0.2-0.6-0.3-1.3-0.3-1.6l0.9-0.2c0.1,0.4,0.2,0.9,0.3,1.5c0.2,0.5,0.4,0.7,0.8,0.6
				c0.3-0.1,0.4-0.2,0.5-0.7l0.1-0.8c0.1-0.8,0.4-1.3,1.2-1.5c1-0.3,1.6,0.2,2,1.4c0.2,0.6,0.2,1.2,0.2,1.5L64.7,28
				c-0.1-0.4-0.2-0.9-0.3-1.4c-0.1-0.5-0.3-0.7-0.7-0.6c-0.3,0.1-0.3,0.2-0.4,0.7l-0.1,0.7c-0.1,0.9-0.4,1.4-1.3,1.6
				C60.8,29.4,60.1,28.9,59.8,27.7z"/>
			<path style="fill:#FFFFFF;" d="M60.7,32.1c-0.2-1.4,0.3-2.2,2.2-2.5l0.6-0.1c1.9-0.3,2.6,0.5,2.8,1.8c0.1,0.4,0.1,1.1,0,1.3
				l-1,0.1c0-0.3,0-0.8-0.1-1.2c-0.1-0.7-0.4-1-1.6-0.9L63,30.8c-1.2,0.2-1.4,0.5-1.3,1.3c0.1,0.4,0.1,0.9,0.2,1.2l-1,0.1
				C60.9,33.1,60.7,32.5,60.7,32.1z"/>
			<path style="fill:#FFFFFF;" d="M60.9,36.9l2.3,0.1l0.1-1.8L61,35.1l0-1.2l5.4,0.2l0,1.2l-2.1-0.1L64.2,37l2.1,0.1l0,1.2l-5.4-0.2
				L60.9,36.9z"/>
			<path style="fill:#FFFFFF;" d="M60.2,40.8c0.3-1.3,1.2-1.8,2.7-1.5L66,40l-0.3,1.2l-3.1-0.7c-0.9-0.2-1.3-0.1-1.5,0.5
				c-0.1,0.6,0.2,0.9,1.1,1.1l3.1,0.7L65.1,44L62,43.3C60.5,43,59.9,42.1,60.2,40.8z"/>
			<path style="fill:#FFFFFF;" d="M59.6,43.5l5,2l-0.5,1.1L60,45l-0.7,1.8l-0.9-0.4L59.6,43.5z"/>
			<path style="fill:#FFFFFF;" d="M58.2,46.8l4.7,2.7l-1.7,2.9l-0.9-0.5l1.1-1.8l-1-0.6l-1,1.7l-0.8-0.5l1-1.7l-1.1-0.7l-1.1,1.8
				l-0.8-0.5L58.2,46.8z"/>
			<path style="fill:#FFFFFF;" d="M52.4,54.1c0.5-0.4,1-0.8,1.3-1l0.6,0.7c-0.3,0.3-0.7,0.5-1.2,1c-0.4,0.4-0.5,0.7-0.2,1
				c0.2,0.2,0.4,0.2,0.9,0.1l0.7-0.2c0.7-0.2,1.3-0.2,1.9,0.4c0.7,0.8,0.5,1.6-0.4,2.4c-0.5,0.4-1,0.7-1.2,0.9l-0.6-0.6
				c0.4-0.3,0.7-0.5,1.1-0.9c0.4-0.3,0.5-0.6,0.2-0.9c-0.2-0.2-0.3-0.2-0.8-0.1l-0.7,0.2c-0.8,0.3-1.4,0.2-2-0.4
				C51.4,55.7,51.6,54.8,52.4,54.1z"/>
			<path style="fill:#FFFFFF;" d="M48.9,56.8c1.2-0.8,2.1-0.7,3.2,0.9l0.3,0.5c1.1,1.6,0.7,2.5-0.4,3.3c-0.3,0.2-0.9,0.5-1.2,0.6
				l-0.5-0.8c0.3-0.2,0.7-0.4,1-0.6c0.6-0.4,0.7-0.8,0.1-1.8l-0.3-0.5c-0.7-1-1.1-1-1.7-0.6c-0.3,0.2-0.7,0.5-1,0.7l-0.5-0.8
				C48.1,57.4,48.6,57,48.9,56.8z"/>
			<path style="fill:#FFFFFF;" d="M44.7,59.1l0.9,2.1l1.7-0.7l-0.9-2.1l1.1-0.5l2.2,4.9l-1.1,0.5l-0.8-1.9L46,62.1l0.8,1.9l-1.1,0.5
				l-2.2-4.9L44.7,59.1z"/>
			<path style="fill:#FFFFFF;" d="M38.1,60.9l1.5-0.3l1.1,2.4c0.1,0.2,0.2,0.5,0.3,0.7l0,0c0-0.2,0-0.5,0-0.8l0-2.6l1.5-0.3l1.9,5.1
				l-1.2,0.2l-1-2.8c-0.1-0.3-0.2-0.7-0.3-1l0,0c0,0.3,0,0.7,0,1l0.1,3.1l-0.9,0.2L39.6,63c-0.1-0.3-0.3-0.6-0.4-0.9l0,0
				c0,0.3,0.1,0.7,0.1,1l0.2,3l-1.2,0.2L38.1,60.9z"/>
			<path style="fill:#FFFFFF;" d="M36.8,60.9l0.1,5.4l-3.3,0.1l0-1l2.1,0l0-1.2l-2,0l0-0.9l2,0l0-1.3l-2.1,0l0-1L36.8,60.9z"/>
			<path style="fill:#FFFFFF;" d="M32.8,60.9l-0.6,5.4L31,66.1l0.6-5.4L32.8,60.9z"/>
			<path style="fill:#FFFFFF;" d="M30.9,60.7l-0.2,1l-2.9,2.8l2.1,0.5l-0.2,1l-3.4-0.8l0.2-1l2.9-2.8l-2.2-0.5l0.2-1L30.9,60.7z"/>
			<path style="fill:#FFFFFF;" d="M23.5,60.4l-0.7,1.4l-1.3-0.7l0.7-1.4L23.5,60.4z"/>
			<path style="fill:#FFFFFF;" d="M20.2,56.4l-0.6,0.7l-0.9-0.6l-2,2.6l1,0.4l-0.6,0.8l-1.4-0.5l-0.7-0.5l2.8-3.5l-0.8-0.7l0.6-0.7
				L20.2,56.4z"/>
			<path style="fill:#FFFFFF;" d="M16.1,52.6c0.5,0.5,0.8,1.1,1,1.3l-0.6,0.6c-0.2-0.3-0.6-0.7-1-1.2c-0.6-0.6-0.9-0.4-1.4,0
				l-0.1,0.1c0.2,0.1,0.5,0.4,0.7,0.6c0.7,0.7,1,1.5,0.1,2.4l-0.2,0.2c-1,0.9-1.9,0.6-2.6-0.2c-0.9-1-0.9-1.9,0.3-2.9l0.9-0.8
				C14.1,51.7,15,51.4,16.1,52.6z M12.9,54.5c-0.6,0.6-0.6,0.9-0.3,1.3c0.3,0.3,0.7,0.3,1.1-0.1l0.2-0.1c0.4-0.4,0.4-0.7,0.1-1
				c-0.1-0.1-0.3-0.3-0.6-0.5L12.9,54.5z"/>
			<path style="fill:#FFFFFF;" d="M13.6,49.5c0.4,0.6,0.6,1.2,0.7,1.5l-0.7,0.5c-0.1-0.3-0.4-0.7-0.7-1.2c-0.4-0.6-0.7-0.7-1.2-0.4
				l-0.1,0.1c-0.4,0.3-0.5,0.5-0.1,1.2l0.7,1.1l-2.6,1.5L8,51l0.8-0.5l1.2,1.8l0.9-0.5l-0.3-0.4c-0.8-1.2-0.7-1.9,0.3-2.5l0.1-0.1
				C12.1,48.1,12.9,48.5,13.6,49.5z"/>
			<path style="fill:#FFFFFF;" d="M9.7,44.9l1.1-0.5l0.5,1.1L10.2,46l0.9,2l-0.8,0.4l-3.9-0.9l-0.4-0.9l3-1.3l-0.3-0.6l0.8-0.4
				L9.7,44.9z M7.6,47.1l2.2,0.5l-0.5-1.2L7.6,47.1z"/>
		</g>
	</g>
</g>
</svg>
