<?xml version="1.0" encoding="utf-8"?>
<!-- Generator: Adobe Illustrator 18.1.1, SVG Export Plug-In . SVG Version: 6.00 Build 0)  -->
<svg version="1.1" id="Ebene_1" xmlns="http://www.w3.org/2000/svg" xmlns:xlink="http://www.w3.org/1999/xlink" x="0px" y="0px"
	 width="35px" height="23px" viewBox="0 0 35 23" style="enable-background:new 0 0 35 23;" xml:space="preserve">
<g>
	<path style="fill:#494A4F;" d="M33.5,3.4h-32C0.7,3.4,0,2.7,0,1.9s0.7-1.5,1.5-1.5h32C34.3,0.4,35,1,35,1.9S34.3,3.4,33.5,3.4z"/>
	<path style="fill:#494A4F;" d="M33.5,13h-32C0.7,13,0,12.3,0,11.5S0.7,10,1.5,10h32c0.8,0,1.5,0.7,1.5,1.5S34.3,13,33.5,13z"/>
	<path style="fill:#494A4F;" d="M33.5,22.6h-32C0.7,22.6,0,22,0,21.1s0.7-1.5,1.5-1.5h32c0.8,0,1.5,0.7,1.5,1.5S34.3,22.6,33.5,22.6
		z"/>
</g>
</svg>
